<svg width="1104" height="145" viewBox="0 0 1104 145" fill="none" xmlns="http://www.w3.org/2000/svg">
<g clip-path="url(#clip0_4356_3944)">
<rect width="1104" height="145" fill="white"/>
<path d="M89 -0.5L45.5 103H1V-0.5H89Z" fill="#020088"/>
<rect y="123" width="177" height="22" fill="#F2003F"/>
<path d="M75.5 81H177V103H67L75.5 81Z" fill="#F2003F"/>
<path d="M93.5 41H177V63H85L93.5 41Z" fill="#F2003F"/>
<path d="M110 -0.5L176.5 -0.5V21.5H101.5L110 -0.5Z" fill="#F2003F"/>
<path d="M309.57 137.04C300.163 137.04 291.493 135.567 283.56 132.62C275.74 129.56 268.883 125.253 262.99 119.7C257.21 114.147 252.677 107.63 249.39 100.15C246.217 92.67 244.63 84.4533 244.63 75.5C244.63 66.5467 246.217 58.33 249.39 50.85C252.677 43.37 257.267 36.8533 263.16 31.3C269.053 25.7467 275.967 21.4967 283.9 18.55C291.833 15.49 300.56 13.96 310.08 13.96C320.62 13.96 330.083 15.7167 338.47 19.23C346.97 22.7433 354.11 27.8433 359.89 34.53L342.21 50.85C337.903 46.3167 333.2 42.9733 328.1 40.82C323 38.5533 317.447 37.42 311.44 37.42C305.66 37.42 300.39 38.3267 295.63 40.14C290.87 41.9533 286.733 44.56 283.22 47.96C279.82 51.36 277.157 55.3833 275.23 60.03C273.417 64.6767 272.51 69.8333 272.51 75.5C272.51 81.0533 273.417 86.1533 275.23 90.8C277.157 95.4467 279.82 99.5267 283.22 103.04C286.733 106.44 290.813 109.047 295.46 110.86C300.22 112.673 305.433 113.58 311.1 113.58C316.54 113.58 321.81 112.73 326.91 111.03C332.123 109.217 337.167 106.213 342.04 102.02L357.68 121.91C351.22 126.783 343.683 130.523 335.07 133.13C326.57 135.737 318.07 137.04 309.57 137.04ZM332.52 118.34V73.63H357.68V121.91L332.52 118.34ZM424.912 136.36C415.166 136.36 406.496 134.32 398.902 130.24C391.422 126.16 385.472 120.607 381.052 113.58C376.746 106.44 374.592 98.3367 374.592 89.27C374.592 80.09 376.746 71.9867 381.052 64.96C385.472 57.82 391.422 52.2667 398.902 48.3C406.496 44.22 415.166 42.18 424.912 42.18C434.546 42.18 443.159 44.22 450.752 48.3C458.346 52.2667 464.296 57.7633 468.602 64.79C472.909 71.8167 475.062 79.9767 475.062 89.27C475.062 98.3367 472.909 106.44 468.602 113.58C464.296 120.607 458.346 126.16 450.752 130.24C443.159 134.32 434.546 136.36 424.912 136.36ZM424.912 114.6C429.332 114.6 433.299 113.58 436.812 111.54C440.326 109.5 443.102 106.61 445.142 102.87C447.182 99.0167 448.202 94.4833 448.202 89.27C448.202 83.9433 447.182 79.41 445.142 75.67C443.102 71.93 440.326 69.04 436.812 67C433.299 64.96 429.332 63.94 424.912 63.94C420.492 63.94 416.526 64.96 413.012 67C409.499 69.04 406.666 71.93 404.512 75.67C402.472 79.41 401.452 83.9433 401.452 89.27C401.452 94.4833 402.472 99.0167 404.512 102.87C406.666 106.61 409.499 109.5 413.012 111.54C416.526 113.58 420.492 114.6 424.912 114.6ZM515.119 135L476.699 43.54H504.069L536.029 122.25H522.429L555.579 43.54H581.079L542.489 135H515.119Z" fill="#EF0341"/>
<path d="M651.23 137.04C641.823 137.04 633.153 135.567 625.22 132.62C617.4 129.56 610.543 125.253 604.65 119.7C598.87 114.147 594.337 107.63 591.05 100.15C587.877 92.67 586.29 84.4533 586.29 75.5C586.29 66.5467 587.877 58.33 591.05 50.85C594.337 43.37 598.927 36.8533 604.82 31.3C610.713 25.7467 617.627 21.4967 625.56 18.55C633.493 15.49 642.22 13.96 651.74 13.96C662.28 13.96 671.743 15.7167 680.13 19.23C688.63 22.7433 695.77 27.8433 701.55 34.53L683.87 50.85C679.563 46.3167 674.86 42.9733 669.76 40.82C664.66 38.5533 659.107 37.42 653.1 37.42C647.32 37.42 642.05 38.3267 637.29 40.14C632.53 41.9533 628.393 44.56 624.88 47.96C621.48 51.36 618.817 55.3833 616.89 60.03C615.077 64.6767 614.17 69.8333 614.17 75.5C614.17 81.0533 615.077 86.1533 616.89 90.8C618.817 95.4467 621.48 99.5267 624.88 103.04C628.393 106.44 632.473 109.047 637.12 110.86C641.88 112.673 647.093 113.58 652.76 113.58C658.2 113.58 663.47 112.73 668.57 111.03C673.783 109.217 678.827 106.213 683.7 102.02L699.34 121.91C692.88 126.783 685.343 130.523 676.73 133.13C668.23 135.737 659.73 137.04 651.23 137.04ZM674.18 118.34V73.63H699.34V121.91L674.18 118.34ZM761.643 136.36C754.049 136.36 747.249 134.887 741.243 131.94C735.349 128.993 730.759 124.517 727.473 118.51C724.186 112.39 722.543 104.627 722.543 95.22V43.54H749.063V91.31C749.063 98.9033 750.649 104.513 753.823 108.14C757.109 111.653 761.699 113.41 767.593 113.41C771.673 113.41 775.299 112.56 778.473 110.86C781.646 109.047 784.139 106.327 785.953 102.7C787.766 98.96 788.673 94.3133 788.673 88.76V43.54H815.193V135H790.033V109.84L794.623 117.15C791.563 123.497 787.029 128.313 781.023 131.6C775.129 134.773 768.669 136.36 761.643 136.36ZM839.761 135V43.54H866.281V135H839.761ZM853.021 30.79C848.148 30.79 844.181 29.3733 841.121 26.54C838.061 23.7067 836.531 20.1933 836.531 16C836.531 11.8067 838.061 8.29333 841.121 5.46C844.181 2.62666 848.148 1.20999 853.021 1.20999C857.895 1.20999 861.861 2.56999 864.921 5.29C867.981 7.89666 869.511 11.2967 869.511 15.49C869.511 19.91 867.981 23.5933 864.921 26.54C861.975 29.3733 858.008 30.79 853.021 30.79ZM930.164 136.36C921.551 136.36 913.788 134.433 906.874 130.58C899.961 126.613 894.464 121.117 890.384 114.09C886.418 107.063 884.434 98.79 884.434 89.27C884.434 79.6367 886.418 71.3067 890.384 64.28C894.464 57.2533 899.961 51.8133 906.874 47.96C913.788 44.1067 921.551 42.18 930.164 42.18C937.871 42.18 944.614 43.88 950.394 47.28C956.174 50.68 960.651 55.8367 963.824 62.75C966.998 69.6633 968.584 78.5033 968.584 89.27C968.584 99.9233 967.054 108.763 963.994 115.79C960.934 122.703 956.514 127.86 950.734 131.26C945.068 134.66 938.211 136.36 930.164 136.36ZM934.754 114.6C939.061 114.6 942.971 113.58 946.484 111.54C949.998 109.5 952.774 106.61 954.814 102.87C956.968 99.0167 958.044 94.4833 958.044 89.27C958.044 83.9433 956.968 79.41 954.814 75.67C952.774 71.93 949.998 69.04 946.484 67C942.971 64.96 939.061 63.94 934.754 63.94C930.334 63.94 926.368 64.96 922.854 67C919.341 69.04 916.508 71.93 914.354 75.67C912.314 79.41 911.294 83.9433 911.294 89.27C911.294 94.4833 912.314 99.0167 914.354 102.87C916.508 106.61 919.341 109.5 922.854 111.54C926.368 113.58 930.334 114.6 934.754 114.6ZM958.724 135V116.3L959.234 89.1L957.534 62.07V8.85999H984.054V135H958.724ZM1053.99 136.36C1043.56 136.36 1034.38 134.32 1026.45 130.24C1018.63 126.16 1012.57 120.607 1008.26 113.58C1003.95 106.44 1001.8 98.3367 1001.8 89.27C1001.8 80.09 1003.9 71.9867 1008.09 64.96C1012.4 57.82 1018.23 52.2667 1025.6 48.3C1032.97 44.22 1041.3 42.18 1050.59 42.18C1059.54 42.18 1067.59 44.1067 1074.73 47.96C1081.98 51.7 1087.71 57.14 1091.9 64.28C1096.09 71.3067 1098.19 79.75 1098.19 89.61C1098.19 90.63 1098.13 91.82 1098.02 93.18C1097.91 94.4267 1097.79 95.6167 1097.68 96.75H1023.39V81.28H1083.74L1073.54 85.87C1073.54 81.11 1072.58 76.9733 1070.65 73.46C1068.72 69.9467 1066.06 67.2267 1062.66 65.3C1059.26 63.26 1055.29 62.24 1050.76 62.24C1046.23 62.24 1042.2 63.26 1038.69 65.3C1035.29 67.2267 1032.63 70.0033 1030.7 73.63C1028.77 77.1433 1027.81 81.3367 1027.81 86.21V90.29C1027.81 95.2767 1028.89 99.6967 1031.04 103.55C1033.31 107.29 1036.42 110.18 1040.39 112.22C1044.47 114.147 1049.23 115.11 1054.67 115.11C1059.54 115.11 1063.79 114.373 1067.42 112.9C1071.16 111.427 1074.56 109.217 1077.62 106.27L1091.73 121.57C1087.54 126.33 1082.27 130.013 1075.92 132.62C1069.57 135.113 1062.26 136.36 1053.99 136.36Z" fill="#020088"/>
</g>
<rect x="0.5" y="0.5" width="1103" height="144" stroke="black"/>
<defs>
<clipPath id="clip0_4356_3944">
<rect width="1104" height="145" fill="white"/>
</clipPath>
</defs>
</svg>
